<svg xmlns="http://www.w3.org/2000/svg" xmlns:xlink="http://www.w3.org/1999/xlink" style="isolation:isolate" width="100" height="100" viewBox="297 207 100 100"><g id="verdaccio-tiny"><path fill="#F7F8F6" fill-rule="evenodd" d="M 334 207 L 360 207 C 380.421 207 397 223.579 397 244 L 397 270 C 397 290.421 380.421 307 360 307 L 334 307 C 313.579 307 297 290.421 297 270 L 297 244 C 297 223.579 313.579 207 334 207 Z"/><g id="Group"><mask id="_mask_Qbns5yfCiOhckpS4fdmAtyqLr4dgZWId"><path fill="#fff" fill-rule="evenodd" stroke="none" d="M 367 253.6 L 351.8 284 L 343 284 L 319.4 236.8 L 334.6 236.8 L 347.4 262.4 L 351.8 253.6 L 367 253.6 L 367 253.6 Z"/></mask><path fill="#405236" fill-rule="evenodd" stroke="#405236" stroke-linecap="square" stroke-linejoin="miter" stroke-miterlimit="10" stroke-width="4.8" d="M 367 253.6 L 351.8 284 L 343 284 L 319.4 236.8 L 334.6 236.8 L 347.4 262.4 L 351.8 253.6 L 367 253.6 L 367 253.6 Z" mask="url(#_mask_Qbns5yfCiOhckpS4fdmAtyqLr4dgZWId)" vector-effect="non-scaling-stroke"/><mask id="_mask_78wSwMoF9QkWIbZfueLf7FbQQz8YIBiY"><path fill="#fff" fill-rule="evenodd" stroke="none" d="M 369.8 248 L 354.6 248 L 360.2 236.8 L 375.4 236.8 L 369.8 248 L 369.8 248 Z"/></mask><path fill="#CD4000" fill-rule="evenodd" stroke="#CD4000" stroke-linecap="square" stroke-linejoin="miter" stroke-miterlimit="10" stroke-width="4.8" d="M 369.8 248 L 354.6 248 L 360.2 236.8 L 375.4 236.8 L 369.8 248 L 369.8 248 Z" mask="url(#_mask_78wSwMoF9QkWIbZfueLf7FbQQz8YIBiY)" vector-effect="non-scaling-stroke"/><mask id="_mask_cE65ing3U6mfxM3Uwzq9wIAz5366sMZK"><path fill="#fff" fill-rule="evenodd" stroke="none" d="M 351.8 284 L 343 284 L 319.4 236.8 L 334.6 236.8 L 354.977 277.691 L 351.8 284 Z"/></mask><path fill="#4A5E3F" fill-rule="evenodd" stroke="#405236" stroke-linecap="square" stroke-linejoin="miter" stroke-miterlimit="10" stroke-width="4.8" d="M 351.8 284 L 343 284 L 319.4 236.8 L 334.6 236.8 L 354.977 277.691 L 351.8 284 Z" mask="url(#_mask_cE65ing3U6mfxM3Uwzq9wIAz5366sMZK)" vector-effect="non-scaling-stroke"/><mask id="_mask_ltwHbSFx9vnoAtoXETwxsGPEOrwwWJVd"><line x1="356.6" x2="371.821" y1="238" y2="238" fill="#fff" stroke="none"/></mask><line x1="356.6" x2="371.821" y1="238" y2="238" stroke="#CD4000" stroke-linecap="square" stroke-linejoin="miter" stroke-miterlimit="10" stroke-width="4.8" mask="url(#_mask_ltwHbSFx9vnoAtoXETwxsGPEOrwwWJVd)" vector-effect="non-scaling-stroke"/><mask id="_mask_ydTg3OLbu1BCUeCqplpqMMNyOfpZaWzM"><line x1="352.6" x2="367.821" y1="242" y2="242" fill="#fff" stroke="none"/></mask><line x1="352.6" x2="367.821" y1="242" y2="242" stroke="#CD4000" stroke-linecap="square" stroke-linejoin="miter" stroke-miterlimit="10" stroke-width="4.8" mask="url(#_mask_ydTg3OLbu1BCUeCqplpqMMNyOfpZaWzM)" vector-effect="non-scaling-stroke"/><mask id="_mask_dFEBcI4uC8Gj9CbfqRoz9FrxL6bxmbWv"><line x1="348.6" x2="363.821" y1="246.8" y2="246.8" fill="#fff" stroke="none"/></mask><line x1="348.6" x2="363.821" y1="246.8" y2="246.8" stroke="#CD4000" stroke-linecap="square" stroke-linejoin="miter" stroke-miterlimit="10" stroke-width="4.8" mask="url(#_mask_dFEBcI4uC8Gj9CbfqRoz9FrxL6bxmbWv)" vector-effect="non-scaling-stroke"/></g></g></svg>