<svg xmlns="http://www.w3.org/2000/svg" xmlns:xlink="http://www.w3.org/1999/xlink" width="160.01" height="160" preserveAspectRatio="xMidYMid meet" version="1.1" viewBox="76.59 44 164.008 164"><defs><path id="a7nkpY5fFy" d="M237.6 95L187.6 95L187.6 45L237.6 45L237.6 95Z"/><path id="b21kvNK4d7" d="M182.59 95L132.59 95L132.59 45L182.59 45L182.59 95Z"/><path id="en4AbanYM" d="M127.59 95L77.59 95L77.59 45L127.59 45L127.59 95Z"/><path id="a3fjOVtiTl" d="M237.6 150L187.6 150L187.6 100L237.6 100L237.6 150Z"/><path id="ceoxWhMH1" d="M182.59 150L132.59 150L132.59 100L182.59 100L182.59 150Z"/><path id="a6qEju1" d="M182.59 205L132.59 205L132.59 155L182.59 155L182.59 205Z"/><path id="adUpTWfSm" d="M237.6 205L187.6 205L187.6 155L237.6 155L237.6 205Z"/><path id="b1mjaQmkkR" d="M127.59 205L77.59 205L77.59 155L127.59 155L127.59 205Z"/></defs><g><g><use fill="#f9ad00" fill-opacity="1" opacity="1" xlink:href="#a7nkpY5fFy"/></g><g><use fill="#f9ad00" fill-opacity="1" opacity="1" xlink:href="#b21kvNK4d7"/></g><g><use fill="#f9ad00" fill-opacity="1" opacity="1" xlink:href="#en4AbanYM"/></g><g><use fill="#f9ad00" fill-opacity="1" opacity="1" xlink:href="#a3fjOVtiTl"/></g><g><use fill="#fff" fill-opacity="1" opacity="1" xlink:href="#ceoxWhMH1"/></g><g><use fill="#fff" fill-opacity="1" opacity="1" xlink:href="#a6qEju1"/></g><g><use fill="#fff" fill-opacity="1" opacity="1" xlink:href="#adUpTWfSm"/></g><g><use fill="#fff" fill-opacity="1" opacity="1" xlink:href="#b1mjaQmkkR"/></g></g></svg>